<svg xmlns="http://www.w3.org/2000/svg" width="1280" height="720" viewBox="0 0 1280 720" role="img" aria-label="저장소 경계 지도">
<defs><linearGradient id="bg" x1="0" x2="1" y1="0" y2="1"><stop offset="0" stop-color="#0f172a"/><stop offset="1" stop-color="#111827"/></linearGradient><filter id="shadow"><feDropShadow dx="0" dy="10" stdDeviation="12" flood-color="#000" flood-opacity="0.28"/></filter><marker id="arrow" markerWidth="12" markerHeight="12" refX="10" refY="4" orient="auto"><path d="M0,0 L0,8 L11,4 z" fill="#93c5fd"/></marker><style>text{font-family:Inter,Arial,'Noto Sans KR',sans-serif}.title{fill:#f8fafc;font-size:44px;font-weight:800}.sub{fill:#bfdbfe;font-size:22px}.num{fill:#93c5fd;font-size:20px;font-weight:800}.box{rx:22;filter:url(#shadow);stroke:#bfdbfe;stroke-width:1.5}.boxTitle{fill:white;font-size:23px;font-weight:800}.boxNote{fill:#dbeafe;font-size:16px}.arrow{stroke:#93c5fd;stroke-width:4;marker-end:url(#arrow);fill:none}.caption{fill:#cbd5e1;font-size:18px}.tag{fill:#1e293b;stroke:#475569;stroke-width:1;rx:16}.tagText{fill:#e2e8f0;font-size:15px;font-weight:700}</style></defs>
<rect width="1280" height="720" fill="url(#bg)"/>
<text x="70" y="76" class="title">저장소 경계 지도</text>
<text x="70" y="114" class="sub">두 개의 런타임과 출시 지식 계층</text>
<text x="70" y="158" class="caption">PonsLink deep dive #01</text>
<rect x="70" y="220" width="206" height="180" fill="#2563eb" class="box" opacity="0.92"/><text x="94" y="268" class="boxTitle">ponslink-room-frontend</text><text x="94" y="308" class="boxNote">React/Vite SPA</text><text x="228" y="374" class="num">01.1</text><path d="M282 310 H292" class="arrow"/><rect x="304" y="220" width="206" height="180" fill="#7c3aed" class="box" opacity="0.92"/><text x="328" y="268" class="boxTitle">ponslink-api-infra</text><text x="328" y="308" class="boxNote">Express + Socket.IO</text><text x="461" y="374" class="num">01.2</text><path d="M515 310 H525" class="arrow"/><rect x="537" y="220" width="206" height="180" fill="#0891b2" class="box" opacity="0.92"/><text x="561" y="268" class="boxTitle">docs / okf</text><text x="561" y="308" class="boxNote">Launch readiness</text><text x="695" y="374" class="num">01.3</text><path d="M749 310 H759" class="arrow"/><rect x="771" y="220" width="206" height="180" fill="#16a34a" class="box" opacity="0.92"/><text x="795" y="268" class="boxTitle">design / artifacts</text><text x="795" y="308" class="boxNote">UI boards</text><text x="928" y="374" class="num">01.4</text><path d="M982 310 H992" class="arrow"/><rect x="1004" y="220" width="206" height="180" fill="#ea580c" class="box" opacity="0.92"/><text x="1028" y="268" class="boxTitle">scripts / audits</text><text x="1028" y="308" class="boxNote">Ops evidence</text><text x="1162" y="374" class="num">01.5</text>
<rect x="70" y="650" width="165" height="34" class="tag"/><text x="88" y="672" class="tagText">PonsLink</text><rect x="255" y="650" width="165" height="34" class="tag"/><text x="273" y="672" class="tagText">WebRTC</text><rect x="440" y="650" width="165" height="34" class="tag"/><text x="458" y="672" class="tagText">State</text><rect x="625" y="650" width="165" height="34" class="tag"/><text x="643" y="672" class="tagText">Policy</text><rect x="810" y="650" width="165" height="34" class="tag"/><text x="828" y="672" class="tagText">Product</text>
</svg>