<svg xmlns="http://www.w3.org/2000/svg" width="1280" height="720" viewBox="0 0 1280 720" role="img" aria-label="반복 설계 패턴">
<defs><linearGradient id="bg" x1="0" x2="1" y1="0" y2="1"><stop offset="0" stop-color="#0f172a"/><stop offset="1" stop-color="#111827"/></linearGradient><filter id="shadow"><feDropShadow dx="0" dy="10" stdDeviation="12" flood-color="#000" flood-opacity="0.28"/></filter><marker id="arrow" markerWidth="12" markerHeight="12" refX="10" refY="4" orient="auto"><path d="M0,0 L0,8 L11,4 z" fill="#93c5fd"/></marker><style>text{font-family:Inter,Arial,'Noto Sans KR',sans-serif}.title{fill:#f8fafc;font-size:44px;font-weight:800}.sub{fill:#bfdbfe;font-size:22px}.num{fill:#93c5fd;font-size:20px;font-weight:800}.box{rx:22;filter:url(#shadow);stroke:#bfdbfe;stroke-width:1.5}.boxTitle{fill:white;font-size:23px;font-weight:800}.boxNote{fill:#dbeafe;font-size:16px}.arrow{stroke:#93c5fd;stroke-width:4;marker-end:url(#arrow);fill:none}.caption{fill:#cbd5e1;font-size:18px}.tag{fill:#1e293b;stroke:#475569;stroke-width:1;rx:16}.tagText{fill:#e2e8f0;font-size:15px;font-weight:700}</style></defs>
<rect width="1280" height="720" fill="url(#bg)"/>
<text x="70" y="76" class="title">반복 설계 패턴</text>
<text x="70" y="114" class="sub">Facade · Repository · Policy · Worker · Test</text>
<text x="70" y="158" class="caption">PonsLink deep dive #10</text>
<rect x="70" y="210" width="330" height="160" fill="#2563eb" class="box" opacity="0.92"/><text x="94" y="258" class="boxTitle">Facade</text><text x="94" y="298" class="boxNote">WebRTC/Socket</text><text x="352" y="344" class="num">10.1</text><path d="M406 290 H416" class="arrow"/><rect x="428" y="210" width="330" height="160" fill="#7c3aed" class="box" opacity="0.92"/><text x="452" y="258" class="boxTitle">Repository</text><text x="452" y="298" class="boxNote">DTO/Persistence</text><text x="710" y="344" class="num">10.2</text><path d="M764 290 H774" class="arrow"/><rect x="786" y="210" width="330" height="160" fill="#0891b2" class="box" opacity="0.92"/><text x="810" y="258" class="boxTitle">Policy</text><text x="810" y="298" class="boxNote">pure rules</text><text x="1068" y="344" class="num">10.3</text><path d="M951 378 C951 440, 235 350, 235 408" class="arrow"/><rect x="70" y="420" width="330" height="160" fill="#16a34a" class="box" opacity="0.92"/><text x="94" y="468" class="boxTitle">Worker/Scheduler</text><text x="94" y="508" class="boxNote">long jobs</text><text x="352" y="554" class="num">10.4</text><path d="M406 500 H416" class="arrow"/><rect x="428" y="420" width="330" height="160" fill="#ea580c" class="box" opacity="0.92"/><text x="452" y="468" class="boxTitle">State Machine</text><text x="452" y="508" class="boxNote">valid transitions</text><text x="710" y="554" class="num">10.5</text><path d="M764 500 H774" class="arrow"/><rect x="786" y="420" width="330" height="160" fill="#dc2626" class="box" opacity="0.92"/><text x="810" y="468" class="boxTitle">Behavior Tests</text><text x="810" y="508" class="boxNote">risk locks</text><text x="1068" y="554" class="num">10.6</text>
<rect x="70" y="650" width="165" height="34" class="tag"/><text x="88" y="672" class="tagText">PonsLink</text><rect x="255" y="650" width="165" height="34" class="tag"/><text x="273" y="672" class="tagText">WebRTC</text><rect x="440" y="650" width="165" height="34" class="tag"/><text x="458" y="672" class="tagText">State</text><rect x="625" y="650" width="165" height="34" class="tag"/><text x="643" y="672" class="tagText">Policy</text><rect x="810" y="650" width="165" height="34" class="tag"/><text x="828" y="672" class="tagText">Product</text>
</svg>