<svg xmlns="http://www.w3.org/2000/svg" viewBox="0 0 272 64" width="272" height="64" role="img" aria-label="PonsLink">
  <defs>
    <linearGradient id="mark" x1="0" y1="0" x2="1" y2="1">
      <stop offset="0%" stop-color="#9CAF88"/>
      <stop offset="48%" stop-color="#1998F2"/>
      <stop offset="100%" stop-color="#14213D"/>
    </linearGradient>
    <linearGradient id="word" x1="78" y1="18" x2="250" y2="46" gradientUnits="userSpaceOnUse">
      <stop offset="0%" stop-color="#0F172A"/>
      <stop offset="100%" stop-color="#0F172A"/>
    </linearGradient>
  </defs>
  <g transform="translate(-2 0) scale(0.094)">
    <path d="M 517.0 85.0 L 469.0 63.0 L 428.0 51.0 L 383.0 45.0 L 337.0 45.0 L 299.0 50.0 L 273.0 56.0 L 248.0 64.0 L 208.0 82.0 L 164.0 111.0 L 139.0 133.0 L 122.0 151.0 L 103.0 175.0 L 85.0 203.0 L 65.0 245.0 L 52.0 288.0 L 46.0 327.0 L 45.0 370.0 L 49.0 408.0 L 59.0 450.0 L 71.0 469.0 L 81.0 477.0 L 96.0 483.0 L 115.0 484.0 L 126.0 482.0 L 145.0 474.0 L 159.0 464.0 L 363.0 253.0 L 379.0 242.0 L 407.0 233.0 L 425.0 233.0 L 442.0 237.0 L 461.0 248.0 L 473.0 260.0 L 483.0 277.0 L 488.0 300.0 L 487.0 316.0 L 483.0 331.0 L 473.0 351.0 L 460.0 367.0 L 289.0 541.0 L 277.0 548.0 L 261.0 549.0 L 253.0 546.0 L 246.0 539.0 L 243.0 531.0 L 243.0 523.0 L 246.0 511.0 L 252.0 499.0 L 263.0 484.0 L 407.0 339.0 L 411.0 331.0 L 411.0 320.0 L 407.0 312.0 L 403.0 308.0 L 394.0 304.0 L 387.0 304.0 L 377.0 308.0 L 254.0 433.0 L 223.0 467.0 L 209.0 492.0 L 204.0 506.0 L 201.0 522.0 L 202.0 542.0 L 206.0 555.0 L 213.0 567.0 L 230.0 582.0 L 250.0 590.0 L 281.0 590.0 L 302.0 582.0 L 318.0 571.0 L 499.0 388.0 L 514.0 367.0 L 527.0 337.0 L 531.0 316.0 L 531.0 290.0 L 525.0 264.0 L 515.0 243.0 L 505.0 229.0 L 480.0 207.0 L 459.0 196.0 L 432.0 189.0 L 401.0 189.0 L 376.0 195.0 L 353.0 206.0 L 335.0 219.0 L 129.0 434.0 L 123.0 437.0 L 114.0 437.0 L 105.0 430.0 L 103.0 425.0 L 94.0 374.0 L 94.0 334.0 L 97.0 310.0 L 103.0 284.0 L 119.0 242.0 L 139.0 208.0 L 164.0 177.0 L 204.0 142.0 L 231.0 125.0 L 263.0 110.0 L 295.0 100.0 L 328.0 94.0 L 380.0 93.0 L 427.0 101.0 L 467.0 115.0 L 496.0 130.0 L 525.0 150.0 L 556.0 179.0 L 574.0 201.0 L 593.0 231.0 L 608.0 264.0 L 618.0 298.0 L 623.0 329.0 L 624.0 368.0 L 620.0 402.0 L 607.0 449.0 L 595.0 476.0 L 573.0 512.0 L 554.0 535.0 L 529.0 559.0 L 489.0 587.0 L 452.0 605.0 L 407.0 618.0 L 376.0 622.0 L 293.0 622.0 L 280.0 625.0 L 269.0 630.0 L 189.0 688.0 L 184.0 688.0 L 181.0 685.0 L 189.0 622.0 L 189.0 607.0 L 181.0 595.0 L 172.0 591.0 L 163.0 591.0 L 153.0 596.0 L 147.0 604.0 L 145.0 613.0 L 133.0 728.0 L 135.0 742.0 L 144.0 752.0 L 152.0 755.0 L 168.0 753.0 L 293.0 674.0 L 302.0 670.0 L 382.0 670.0 L 408.0 667.0 L 447.0 658.0 L 489.0 642.0 L 514.0 629.0 L 539.0 613.0 L 571.0 587.0 L 606.0 549.0 L 632.0 510.0 L 646.0 482.0 L 658.0 450.0 L 666.0 420.0 L 671.0 389.0 L 671.0 326.0 L 668.0 302.0 L 660.0 267.0 L 648.0 233.0 L 635.0 206.0 L 608.0 164.0 L 594.0 147.0 L 564.0 118.0 L 545.0 103.0 Z" fill="url(#mark)" fill-rule="evenodd"/>
  </g>
  <g>
    <text x="82" y="39" font-family="'Inter', 'Pretendard', 'Segoe UI', 'SF Pro Display', 'Helvetica Neue', Arial, sans-serif" font-size="29" font-weight="800" letter-spacing="-1" fill="url(#word)">PonsLink</text>
    <text x="84" y="53" font-family="'Inter', 'Pretendard', 'Segoe UI', 'SF Pro Text', 'Helvetica Neue', Arial, sans-serif" font-size="9.5" font-weight="600" letter-spacing="2.3" fill="#71717A">PRIVATE LINK COMMUNICATION</text>
  </g>
</svg>
